<?xml version="1.0" encoding="UTF-8" standalone="no"?>
<!DOCTYPE svg PUBLIC "-//W3C//DTD SVG 1.1//EN"
 "http://www.w3.org/Graphics/SVG/1.1/DTD/svg11.dtd">
<!-- Generated by graphviz version 2.40.1 (20161225.0304)
 -->
<!-- Title: dependencies Pages: 1 -->
<svg width="2145pt" height="284pt"
 viewBox="0.00 0.00 2145.00 284.00" xmlns="http://www.w3.org/2000/svg" xmlns:xlink="http://www.w3.org/1999/xlink">
<g id="graph0" class="graph" transform="scale(1 1) rotate(0) translate(4 280)">
<title>dependencies</title>
<polygon fill="#ffffff" stroke="transparent" points="-4,4 -4,-280 2141,-280 2141,4 -4,4"/>
<text text-anchor="start" x="1047.5091" y="-42.4" font-family="sans-serif" font-weight="bold" font-size="14.00" fill="#000000">Legend</text>
<polygon fill="#ffffb3" stroke="transparent" points="834.5,-10 834.5,-30 854.5,-30 854.5,-10 834.5,-10"/>
<text text-anchor="start" x="858.129" y="-15.4" font-family="sans-serif" font-size="14.00" fill="#000000"> &#160;Declarations</text>
<polygon fill="#8dd3c7" stroke="transparent" points="947.5,-10 947.5,-30 967.5,-30 967.5,-10 947.5,-10"/>
<text text-anchor="start" x="971.2251" y="-15.4" font-family="sans-serif" font-size="14.00" fill="#000000"> &#160;Module</text>
<polygon fill="#80b1d3" stroke="transparent" points="1033.5,-10 1033.5,-30 1053.5,-30 1053.5,-10 1033.5,-10"/>
<text text-anchor="start" x="1057.2812" y="-15.4" font-family="sans-serif" font-size="14.00" fill="#000000"> &#160;Bootstrap</text>
<polygon fill="#fdb462" stroke="transparent" points="1130.5,-10 1130.5,-30 1150.5,-30 1150.5,-10 1130.5,-10"/>
<text text-anchor="start" x="1154.1732" y="-15.4" font-family="sans-serif" font-size="14.00" fill="#000000"> &#160;Providers</text>
<polygon fill="#fb8072" stroke="transparent" points="1226.5,-10 1226.5,-30 1246.5,-30 1246.5,-10 1226.5,-10"/>
<text text-anchor="start" x="1250.2258" y="-15.4" font-family="sans-serif" font-size="14.00" fill="#000000"> &#160;Exports</text>
<g id="clust1" class="cluster">
<title>cluster_AppModule</title>
<polygon fill="none" stroke="#000000" stroke-dasharray="1,5" points="8,-70 8,-268 2129,-268 2129,-70 8,-70"/>
</g>
<g id="clust2" class="cluster">
<title>cluster_AppModule_declarations</title>
<polygon fill="none" stroke="#000000" points="680,-78 680,-130 2121,-130 2121,-78 680,-78"/>
</g>
<g id="clust12" class="cluster">
<title>cluster_AppModule_imports</title>
<polygon fill="none" stroke="#000000" points="369,-78 369,-130 672,-130 672,-78 369,-78"/>
</g>
<g id="clust14" class="cluster">
<title>cluster_AppModule_bootstrap</title>
<polygon fill="none" stroke="#000000" points="1006,-208 1006,-260 1130,-260 1130,-208 1006,-208"/>
</g>
<g id="clust15" class="cluster">
<title>cluster_AppModule_providers</title>
<polygon fill="none" stroke="#000000" points="16,-78 16,-130 361,-130 361,-78 16,-78"/>
</g>
<!-- AdultFormComponent -->
<g id="node1" class="node">
<title>AdultFormComponent</title>
<polygon fill="#ffffb3" stroke="#000000" points="2112.5547,-122 1969.4453,-122 1969.4453,-86 2112.5547,-86 2112.5547,-122"/>
<text text-anchor="middle" x="2041" y="-99.8" font-family="Times,serif" font-size="14.00" fill="#000000">AdultFormComponent</text>
</g>
<!-- AppModule -->
<g id="node10" class="node">
<title>AppModule</title>
<polygon fill="#8dd3c7" stroke="#000000" points="1109.6571,-187 1106.6571,-191 1085.6571,-191 1082.6571,-187 1026.3429,-187 1026.3429,-151 1109.6571,-151 1109.6571,-187"/>
<text text-anchor="middle" x="1068" y="-164.8" font-family="Times,serif" font-size="14.00" fill="#000000">AppModule</text>
</g>
<!-- AdultFormComponent&#45;&gt;AppModule -->
<g id="edge1" class="edge">
<title>AdultFormComponent&#45;&gt;AppModule</title>
<path fill="none" stroke="#000000" d="M2041,-122.0908C2041,-145.1328 2041,-182 2041,-182 2041,-182 1119.8086,-182 1119.8086,-182"/>
<polygon fill="#000000" stroke="#000000" points="1119.8086,-178.5001 1109.8086,-182 1119.8086,-185.5001 1119.8086,-178.5001"/>
</g>
<!-- AppComponent -->
<g id="node2" class="node">
<title>AppComponent</title>
<polygon fill="#ffffb3" stroke="#000000" points="1951.9399,-122 1846.0601,-122 1846.0601,-86 1951.9399,-86 1951.9399,-122"/>
<text text-anchor="middle" x="1899" y="-99.8" font-family="Times,serif" font-size="14.00" fill="#000000">AppComponent</text>
</g>
<!-- AppComponent&#45;&gt;AppModule -->
<g id="edge2" class="edge">
<title>AppComponent&#45;&gt;AppModule</title>
<path fill="none" stroke="#000000" d="M1899,-122.0449C1899,-143.6623 1899,-177 1899,-177 1899,-177 1119.7789,-177 1119.7789,-177"/>
<polygon fill="#000000" stroke="#000000" points="1119.7789,-173.5001 1109.7789,-177 1119.7789,-180.5001 1119.7789,-173.5001"/>
</g>
<!-- ClientValidationComponent -->
<g id="node3" class="node">
<title>ClientValidationComponent</title>
<polygon fill="#ffffb3" stroke="#000000" points="1828.1539,-122 1653.8461,-122 1653.8461,-86 1828.1539,-86 1828.1539,-122"/>
<text text-anchor="middle" x="1741" y="-99.8" font-family="Times,serif" font-size="14.00" fill="#000000">ClientValidationComponent</text>
</g>
<!-- ClientValidationComponent&#45;&gt;AppModule -->
<g id="edge3" class="edge">
<title>ClientValidationComponent&#45;&gt;AppModule</title>
<path fill="none" stroke="#000000" d="M1741,-122.2228C1741,-142.3652 1741,-172 1741,-172 1741,-172 1119.8449,-172 1119.8449,-172"/>
<polygon fill="#000000" stroke="#000000" points="1119.8449,-168.5001 1109.8449,-172 1119.8449,-175.5001 1119.8449,-168.5001"/>
</g>
<!-- DoctorRegistrationComponent -->
<g id="node4" class="node">
<title>DoctorRegistrationComponent</title>
<polygon fill="#ffffb3" stroke="#000000" points="1635.1385,-122 1446.8615,-122 1446.8615,-86 1635.1385,-86 1635.1385,-122"/>
<text text-anchor="middle" x="1541" y="-99.8" font-family="Times,serif" font-size="14.00" fill="#000000">DoctorRegistrationComponent</text>
</g>
<!-- DoctorRegistrationComponent&#45;&gt;AppModule -->
<g id="edge4" class="edge">
<title>DoctorRegistrationComponent&#45;&gt;AppModule</title>
<path fill="none" stroke="#000000" d="M1541,-122.2222C1541,-140.8285 1541,-167 1541,-167 1541,-167 1119.9756,-167 1119.9756,-167"/>
<polygon fill="#000000" stroke="#000000" points="1119.9756,-163.5001 1109.9756,-167 1119.9756,-170.5001 1119.9756,-163.5001"/>
</g>
<!-- FooterComponent -->
<g id="node5" class="node">
<title>FooterComponent</title>
<polygon fill="#ffffb3" stroke="#000000" points="1428.8809,-122 1311.1191,-122 1311.1191,-86 1428.8809,-86 1428.8809,-122"/>
<text text-anchor="middle" x="1370" y="-99.8" font-family="Times,serif" font-size="14.00" fill="#000000">FooterComponent</text>
</g>
<!-- FooterComponent&#45;&gt;AppModule -->
<g id="edge5" class="edge">
<title>FooterComponent&#45;&gt;AppModule</title>
<path fill="none" stroke="#000000" d="M1370,-122.0336C1370,-139.0597 1370,-162 1370,-162 1370,-162 1119.6747,-162 1119.6747,-162"/>
<polygon fill="#000000" stroke="#000000" points="1119.6748,-158.5001 1109.6747,-162 1119.6747,-165.5001 1119.6748,-158.5001"/>
</g>
<!-- HomeComponent -->
<g id="node6" class="node">
<title>HomeComponent</title>
<polygon fill="#ffffb3" stroke="#000000" points="1292.5451,-122 1177.4549,-122 1177.4549,-86 1292.5451,-86 1292.5451,-122"/>
<text text-anchor="middle" x="1235" y="-99.8" font-family="Times,serif" font-size="14.00" fill="#000000">HomeComponent</text>
</g>
<!-- HomeComponent&#45;&gt;AppModule -->
<g id="edge6" class="edge">
<title>HomeComponent&#45;&gt;AppModule</title>
<path fill="none" stroke="#000000" d="M1235,-122.2396C1235,-137.5706 1235,-157 1235,-157 1235,-157 1119.7104,-157 1119.7104,-157"/>
<polygon fill="#000000" stroke="#000000" points="1119.7104,-153.5001 1109.7104,-157 1119.7103,-160.5001 1119.7104,-153.5001"/>
</g>
<!-- NurseRegistrationComponent -->
<g id="node7" class="node">
<title>NurseRegistrationComponent</title>
<polygon fill="#ffffb3" stroke="#000000" points="1159.6923,-122 976.3077,-122 976.3077,-86 1159.6923,-86 1159.6923,-122"/>
<text text-anchor="middle" x="1068" y="-99.8" font-family="Times,serif" font-size="14.00" fill="#000000">NurseRegistrationComponent</text>
</g>
<!-- NurseRegistrationComponent&#45;&gt;AppModule -->
<g id="edge7" class="edge">
<title>NurseRegistrationComponent&#45;&gt;AppModule</title>
<path fill="none" stroke="#000000" d="M1068,-122.1061C1068,-122.1061 1068,-140.991 1068,-140.991"/>
<polygon fill="#000000" stroke="#000000" points="1064.5001,-140.9909 1068,-150.991 1071.5001,-140.991 1064.5001,-140.9909"/>
</g>
<!-- TableComponent -->
<g id="node8" class="node">
<title>TableComponent</title>
<polygon fill="#ffffb3" stroke="#000000" points="958.705,-122 845.295,-122 845.295,-86 958.705,-86 958.705,-122"/>
<text text-anchor="middle" x="902" y="-99.8" font-family="Times,serif" font-size="14.00" fill="#000000">TableComponent</text>
</g>
<!-- TableComponent&#45;&gt;AppModule -->
<g id="edge8" class="edge">
<title>TableComponent&#45;&gt;AppModule</title>
<path fill="none" stroke="#000000" d="M902,-122.2396C902,-137.5706 902,-157 902,-157 902,-157 1016.1112,-157 1016.1112,-157"/>
<polygon fill="#000000" stroke="#000000" points="1016.1112,-160.5001 1026.1112,-157 1016.1112,-153.5001 1016.1112,-160.5001"/>
</g>
<!-- TableRowComponent -->
<g id="node9" class="node">
<title>TableRowComponent</title>
<polygon fill="#ffffb3" stroke="#000000" points="827.6484,-122 688.3516,-122 688.3516,-86 827.6484,-86 827.6484,-122"/>
<text text-anchor="middle" x="758" y="-99.8" font-family="Times,serif" font-size="14.00" fill="#000000">TableRowComponent</text>
</g>
<!-- TableRowComponent&#45;&gt;AppModule -->
<g id="edge9" class="edge">
<title>TableRowComponent&#45;&gt;AppModule</title>
<path fill="none" stroke="#000000" d="M758,-122.0336C758,-139.0597 758,-162 758,-162 758,-162 1016.192,-162 1016.192,-162"/>
<polygon fill="#000000" stroke="#000000" points="1016.1921,-165.5001 1026.192,-162 1016.192,-158.5001 1016.1921,-165.5001"/>
</g>
<!-- AppComponent  -->
<g id="node13" class="node">
<title>AppComponent </title>
<polygon fill="#80b1d3" stroke="#000000" points="1122.439,-252 1013.561,-252 1013.561,-216 1122.439,-216 1122.439,-252"/>
<text text-anchor="middle" x="1068" y="-229.8" font-family="Times,serif" font-size="14.00" fill="#000000">AppComponent </text>
</g>
<!-- AppModule&#45;&gt;AppComponent  -->
<g id="edge12" class="edge">
<title>AppModule&#45;&gt;AppComponent </title>
<path fill="none" stroke="#000000" stroke-dasharray="1,5" d="M1068,-187.1061C1068,-187.1061 1068,-205.991 1068,-205.991"/>
<polygon fill="#000000" stroke="#000000" points="1064.5001,-205.9909 1068,-215.991 1071.5001,-205.991 1064.5001,-205.9909"/>
</g>
<!-- AppRoutingModule -->
<g id="node11" class="node">
<title>AppRoutingModule</title>
<polygon fill="#8dd3c7" stroke="#000000" points="664.2744,-122 661.2744,-126 640.2744,-126 637.2744,-122 535.7256,-122 535.7256,-86 664.2744,-86 664.2744,-122"/>
<text text-anchor="middle" x="600" y="-99.8" font-family="Times,serif" font-size="14.00" fill="#000000">AppRoutingModule</text>
</g>
<!-- AppRoutingModule&#45;&gt;AppModule -->
<g id="edge10" class="edge">
<title>AppRoutingModule&#45;&gt;AppModule</title>
<path fill="none" stroke="#000000" d="M600,-122.2222C600,-140.8285 600,-167 600,-167 600,-167 1016.0563,-167 1016.0563,-167"/>
<polygon fill="#000000" stroke="#000000" points="1016.0563,-170.5001 1026.0563,-167 1016.0562,-163.5001 1016.0563,-170.5001"/>
</g>
<!-- SignInModuleModule -->
<g id="node12" class="node">
<title>SignInModuleModule</title>
<polygon fill="#8dd3c7" stroke="#000000" points="517.4341,-122 514.4341,-126 493.4341,-126 490.4341,-122 376.5659,-122 376.5659,-86 517.4341,-86 517.4341,-122"/>
<text text-anchor="middle" x="447" y="-99.8" font-family="Times,serif" font-size="14.00" fill="#000000">SignInModuleModule</text>
</g>
<!-- SignInModuleModule&#45;&gt;AppModule -->
<g id="edge11" class="edge">
<title>SignInModuleModule&#45;&gt;AppModule</title>
<path fill="none" stroke="#000000" d="M447,-122.2228C447,-142.3652 447,-172 447,-172 447,-172 1016.2902,-172 1016.2902,-172"/>
<polygon fill="#000000" stroke="#000000" points="1016.2902,-175.5001 1026.2902,-172 1016.2901,-168.5001 1016.2902,-175.5001"/>
</g>
<!-- AuthGuardService -->
<g id="node14" class="node">
<title>AuthGuardService</title>
<ellipse fill="#fdb462" stroke="#000000" cx="270" cy="-104" rx="83.3674" ry="18"/>
<text text-anchor="middle" x="270" y="-99.8" font-family="Times,serif" font-size="14.00" fill="#000000">AuthGuardService</text>
</g>
<!-- AuthGuardService&#45;&gt;AppModule -->
<g id="edge13" class="edge">
<title>AuthGuardService&#45;&gt;AppModule</title>
<path fill="none" stroke="#000000" d="M270,-122.0449C270,-143.6623 270,-177 270,-177 270,-177 1016.2196,-177 1016.2196,-177"/>
<polygon fill="#000000" stroke="#000000" points="1016.2196,-180.5001 1026.2196,-177 1016.2196,-173.5001 1016.2196,-180.5001"/>
</g>
<!-- RegisterService -->
<g id="node15" class="node">
<title>RegisterService</title>
<ellipse fill="#fdb462" stroke="#000000" cx="96" cy="-104" rx="72.3439" ry="18"/>
<text text-anchor="middle" x="96" y="-99.8" font-family="Times,serif" font-size="14.00" fill="#000000">RegisterService</text>
</g>
<!-- RegisterService&#45;&gt;AppModule -->
<g id="edge14" class="edge">
<title>RegisterService&#45;&gt;AppModule</title>
<path fill="none" stroke="#000000" d="M96,-122.0908C96,-145.1328 96,-182 96,-182 96,-182 1016.2344,-182 1016.2344,-182"/>
<polygon fill="#000000" stroke="#000000" points="1016.2344,-185.5001 1026.2344,-182 1016.2343,-178.5001 1016.2344,-185.5001"/>
</g>
</g>
</svg>
