<?xml version="1.0" encoding="UTF-8" standalone="no"?>
<!DOCTYPE svg PUBLIC "-//W3C//DTD SVG 1.1//EN"
 "http://www.w3.org/Graphics/SVG/1.1/DTD/svg11.dtd">
<!-- Generated by graphviz version 2.40.1 (20161225.0304)
 -->
<!-- Title: dependencies Pages: 1 -->
<svg width="504pt" height="284pt"
 viewBox="0.00 0.00 504.00 284.00" xmlns="http://www.w3.org/2000/svg" xmlns:xlink="http://www.w3.org/1999/xlink">
<g id="graph0" class="graph" transform="scale(1 1) rotate(0) translate(4 280)">
<title>dependencies</title>
<polygon fill="#ffffff" stroke="transparent" points="-4,4 -4,-280 500,-280 500,4 -4,4"/>
<text text-anchor="start" x="227.0091" y="-42.4" font-family="sans-serif" font-weight="bold" font-size="14.00" fill="#000000">Legend</text>
<polygon fill="#ffffb3" stroke="transparent" points="14,-10 14,-30 34,-30 34,-10 14,-10"/>
<text text-anchor="start" x="37.629" y="-15.4" font-family="sans-serif" font-size="14.00" fill="#000000"> &#160;Declarations</text>
<polygon fill="#8dd3c7" stroke="transparent" points="127,-10 127,-30 147,-30 147,-10 127,-10"/>
<text text-anchor="start" x="150.7251" y="-15.4" font-family="sans-serif" font-size="14.00" fill="#000000"> &#160;Module</text>
<polygon fill="#80b1d3" stroke="transparent" points="213,-10 213,-30 233,-30 233,-10 213,-10"/>
<text text-anchor="start" x="236.7812" y="-15.4" font-family="sans-serif" font-size="14.00" fill="#000000"> &#160;Bootstrap</text>
<polygon fill="#fdb462" stroke="transparent" points="310,-10 310,-30 330,-30 330,-10 310,-10"/>
<text text-anchor="start" x="333.6732" y="-15.4" font-family="sans-serif" font-size="14.00" fill="#000000"> &#160;Providers</text>
<polygon fill="#fb8072" stroke="transparent" points="406,-10 406,-30 426,-30 426,-10 406,-10"/>
<text text-anchor="start" x="429.7258" y="-15.4" font-family="sans-serif" font-size="14.00" fill="#000000"> &#160;Exports</text>
<g id="clust1" class="cluster">
<title>cluster_SignInModuleModule</title>
<polygon fill="none" stroke="#000000" stroke-dasharray="1,5" points="33,-70 33,-268 463,-268 463,-70 33,-70"/>
</g>
<g id="clust2" class="cluster">
<title>cluster_SignInModuleModule_declarations</title>
<polygon fill="none" stroke="#000000" points="255,-78 255,-130 455,-130 455,-78 255,-78"/>
</g>
<g id="clust6" class="cluster">
<title>cluster_SignInModuleModule_bootstrap</title>
<polygon fill="none" stroke="#000000" points="146,-208 146,-260 350,-260 350,-208 146,-208"/>
</g>
<g id="clust7" class="cluster">
<title>cluster_SignInModuleModule_providers</title>
<polygon fill="none" stroke="#000000" points="41,-78 41,-130 247,-130 247,-78 41,-78"/>
</g>
<!-- SignInComponentComponent -->
<g id="node1" class="node">
<title>SignInComponentComponent</title>
<polygon fill="#ffffb3" stroke="#000000" points="446.9986,-122 263.0014,-122 263.0014,-86 446.9986,-86 446.9986,-122"/>
<text text-anchor="middle" x="355" y="-99.8" font-family="Times,serif" font-size="14.00" fill="#000000">SignInComponentComponent</text>
</g>
<!-- SignInModuleModule -->
<g id="node2" class="node">
<title>SignInModuleModule</title>
<polygon fill="#8dd3c7" stroke="#000000" points="318.4341,-187 315.4341,-191 294.4341,-191 291.4341,-187 177.5659,-187 177.5659,-151 318.4341,-151 318.4341,-187"/>
<text text-anchor="middle" x="248" y="-164.8" font-family="Times,serif" font-size="14.00" fill="#000000">SignInModuleModule</text>
</g>
<!-- SignInComponentComponent&#45;&gt;SignInModuleModule -->
<g id="edge1" class="edge">
<title>SignInComponentComponent&#45;&gt;SignInModuleModule</title>
<path fill="none" stroke="#000000" d="M290.6087,-122.1061C290.6087,-122.1061 290.6087,-140.991 290.6087,-140.991"/>
<polygon fill="#000000" stroke="#000000" points="287.1088,-140.9909 290.6087,-150.991 294.1088,-140.991 287.1088,-140.9909"/>
</g>
<!-- SignInComponentComponent  -->
<g id="node3" class="node">
<title>SignInComponentComponent </title>
<polygon fill="#80b1d3" stroke="#000000" points="341.9993,-252 154.0007,-252 154.0007,-216 341.9993,-216 341.9993,-252"/>
<text text-anchor="middle" x="248" y="-229.8" font-family="Times,serif" font-size="14.00" fill="#000000">SignInComponentComponent </text>
</g>
<!-- SignInModuleModule&#45;&gt;SignInComponentComponent  -->
<g id="edge2" class="edge">
<title>SignInModuleModule&#45;&gt;SignInComponentComponent </title>
<path fill="none" stroke="#000000" stroke-dasharray="1,5" d="M248,-187.1061C248,-187.1061 248,-205.991 248,-205.991"/>
<polygon fill="#000000" stroke="#000000" points="244.5001,-205.9909 248,-215.991 251.5001,-205.991 244.5001,-205.9909"/>
</g>
<!-- SignInServiceService -->
<g id="node4" class="node">
<title>SignInServiceService</title>
<ellipse fill="#fdb462" stroke="#000000" cx="144" cy="-104" rx="94.8993" ry="18"/>
<text text-anchor="middle" x="144" y="-99.8" font-family="Times,serif" font-size="14.00" fill="#000000">SignInServiceService</text>
</g>
<!-- SignInServiceService&#45;&gt;SignInModuleModule -->
<g id="edge3" class="edge">
<title>SignInServiceService&#45;&gt;SignInModuleModule</title>
<path fill="none" stroke="#000000" d="M208.2414,-117.468C208.2414,-117.468 208.2414,-140.8642 208.2414,-140.8642"/>
<polygon fill="#000000" stroke="#000000" points="204.7415,-140.8641 208.2414,-150.8642 211.7415,-140.8642 204.7415,-140.8641"/>
</g>
</g>
</svg>
