<?xml version="1.0" encoding="UTF-8" standalone="no"?>
<!DOCTYPE svg PUBLIC "-//W3C//DTD SVG 1.1//EN"
 "http://www.w3.org/Graphics/SVG/1.1/DTD/svg11.dtd">
<!-- Generated by graphviz version 2.40.1 (20161225.0304)
 -->
<!-- Title: dependencies Pages: 1 -->
<svg width="4021pt" height="360pt"
 viewBox="0.00 0.00 4021.00 360.00" xmlns="http://www.w3.org/2000/svg" xmlns:xlink="http://www.w3.org/1999/xlink">
<g id="graph0" class="graph" transform="scale(1 1) rotate(0) translate(4 356)">
<title>dependencies</title>
<polygon fill="#ffffff" stroke="transparent" points="-4,4 -4,-356 4017,-356 4017,4 -4,4"/>
<text text-anchor="start" x="1985.5091" y="-42.4" font-family="sans-serif" font-weight="bold" font-size="14.00" fill="#000000">Legend</text>
<polygon fill="#ffffb3" stroke="transparent" points="1772.5,-10 1772.5,-30 1792.5,-30 1792.5,-10 1772.5,-10"/>
<text text-anchor="start" x="1796.129" y="-15.4" font-family="sans-serif" font-size="14.00" fill="#000000"> &#160;Declarations</text>
<polygon fill="#8dd3c7" stroke="transparent" points="1885.5,-10 1885.5,-30 1905.5,-30 1905.5,-10 1885.5,-10"/>
<text text-anchor="start" x="1909.2251" y="-15.4" font-family="sans-serif" font-size="14.00" fill="#000000"> &#160;Module</text>
<polygon fill="#80b1d3" stroke="transparent" points="1971.5,-10 1971.5,-30 1991.5,-30 1991.5,-10 1971.5,-10"/>
<text text-anchor="start" x="1995.2812" y="-15.4" font-family="sans-serif" font-size="14.00" fill="#000000"> &#160;Bootstrap</text>
<polygon fill="#fdb462" stroke="transparent" points="2068.5,-10 2068.5,-30 2088.5,-30 2088.5,-10 2068.5,-10"/>
<text text-anchor="start" x="2092.1732" y="-15.4" font-family="sans-serif" font-size="14.00" fill="#000000"> &#160;Providers</text>
<polygon fill="#fb8072" stroke="transparent" points="2164.5,-10 2164.5,-30 2184.5,-30 2184.5,-10 2164.5,-10"/>
<text text-anchor="start" x="2188.2258" y="-15.4" font-family="sans-serif" font-size="14.00" fill="#000000"> &#160;Exports</text>
<g id="clust1" class="cluster">
<title>cluster_AppModule</title>
<polygon fill="none" stroke="#000000" stroke-dasharray="1,5" points="8,-146 8,-344 4005,-344 4005,-146 8,-146"/>
</g>
<g id="clust2" class="cluster">
<title>cluster_AppModule_declarations</title>
<polygon fill="none" stroke="#000000" points="837,-154 837,-206 3997,-206 3997,-154 837,-154"/>
</g>
<g id="clust21" class="cluster">
<title>cluster_AppModule_imports</title>
<polygon fill="none" stroke="#000000" points="526,-154 526,-206 829,-206 829,-154 526,-154"/>
</g>
<g id="clust23" class="cluster">
<title>cluster_AppModule_bootstrap</title>
<polygon fill="none" stroke="#000000" points="1969,-284 1969,-336 2093,-336 2093,-284 1969,-284"/>
</g>
<g id="clust24" class="cluster">
<title>cluster_AppModule_providers</title>
<polygon fill="none" stroke="#000000" points="16,-154 16,-206 518,-206 518,-154 16,-154"/>
</g>
<g id="clust31" class="cluster">
<title>cluster_SignInModuleModule</title>
<polygon fill="none" stroke="#000000" stroke-dasharray="1,5" points="493,-70 493,-138 715,-138 715,-70 493,-70"/>
</g>
<g id="clust36" class="cluster">
<title>cluster_SignInModuleModule_providers</title>
<polygon fill="none" stroke="#000000" points="501,-78 501,-130 707,-130 707,-78 501,-78"/>
</g>
<!-- AdultRegistrationComponent -->
<g id="node1" class="node">
<title>AdultRegistrationComponent</title>
<polygon fill="#ffffb3" stroke="#000000" points="3988.6539,-198 3807.3461,-198 3807.3461,-162 3988.6539,-162 3988.6539,-198"/>
<text text-anchor="middle" x="3898" y="-175.8" font-family="Times,serif" font-size="14.00" fill="#000000">AdultRegistrationComponent</text>
</g>
<!-- AppModule -->
<g id="node19" class="node">
<title>AppModule</title>
<polygon fill="#8dd3c7" stroke="#000000" points="2072.6571,-263 2069.6571,-267 2048.6571,-267 2045.6571,-263 1989.3429,-263 1989.3429,-227 2072.6571,-227 2072.6571,-263"/>
<text text-anchor="middle" x="2031" y="-240.8" font-family="Times,serif" font-size="14.00" fill="#000000">AppModule</text>
</g>
<!-- AdultRegistrationComponent&#45;&gt;AppModule -->
<g id="edge1" class="edge">
<title>AdultRegistrationComponent&#45;&gt;AppModule</title>
<path fill="none" stroke="#000000" d="M3898,-198.1532C3898,-221.7566 3898,-260 3898,-260 3898,-260 2083.0566,-260 2083.0566,-260"/>
<polygon fill="#000000" stroke="#000000" points="2083.0566,-256.5001 2073.0566,-260 2083.0566,-263.5001 2083.0566,-256.5001"/>
</g>
<!-- AppComponent -->
<g id="node2" class="node">
<title>AppComponent</title>
<polygon fill="#ffffb3" stroke="#000000" points="3788.9399,-198 3683.0601,-198 3683.0601,-162 3788.9399,-162 3788.9399,-198"/>
<text text-anchor="middle" x="3736" y="-175.8" font-family="Times,serif" font-size="14.00" fill="#000000">AppComponent</text>
</g>
<!-- AppComponent&#45;&gt;AppModule -->
<g id="edge2" class="edge">
<title>AppComponent&#45;&gt;AppModule</title>
<path fill="none" stroke="#000000" d="M3736,-198.2479C3736,-221.0179 3736,-257 3736,-257 3736,-257 2082.7229,-257 2082.7229,-257"/>
<polygon fill="#000000" stroke="#000000" points="2082.7229,-253.5001 2072.7229,-257 2082.7229,-260.5001 2082.7229,-253.5001"/>
</g>
<!-- AvailableDoctorsComponent -->
<g id="node3" class="node">
<title>AvailableDoctorsComponent</title>
<polygon fill="#ffffb3" stroke="#000000" points="3665.0716,-198 3484.9284,-198 3484.9284,-162 3665.0716,-162 3665.0716,-198"/>
<text text-anchor="middle" x="3575" y="-175.8" font-family="Times,serif" font-size="14.00" fill="#000000">AvailableDoctorsComponent</text>
</g>
<!-- AvailableDoctorsComponent&#45;&gt;AppModule -->
<g id="edge3" class="edge">
<title>AvailableDoctorsComponent&#45;&gt;AppModule</title>
<path fill="none" stroke="#000000" d="M3575,-198.2921C3575,-220.2057 3575,-254 3575,-254 3575,-254 2082.6978,-254 2082.6978,-254"/>
<polygon fill="#000000" stroke="#000000" points="2082.6978,-250.5001 2072.6978,-254 2082.6977,-257.5001 2082.6978,-250.5001"/>
</g>
<!-- BannerComponent -->
<g id="node4" class="node">
<title>BannerComponent</title>
<polygon fill="#ffffb3" stroke="#000000" points="3466.759,-198 3345.241,-198 3345.241,-162 3466.759,-162 3466.759,-198"/>
<text text-anchor="middle" x="3406" y="-175.8" font-family="Times,serif" font-size="14.00" fill="#000000">BannerComponent</text>
</g>
<!-- BannerComponent&#45;&gt;AppModule -->
<g id="edge4" class="edge">
<title>BannerComponent&#45;&gt;AppModule</title>
<path fill="none" stroke="#000000" d="M3406,-198.2843C3406,-219.3211 3406,-251 3406,-251 3406,-251 2082.9018,-251 2082.9018,-251"/>
<polygon fill="#000000" stroke="#000000" points="2082.9018,-247.5001 2072.9018,-251 2082.9018,-254.5001 2082.9018,-247.5001"/>
</g>
<!-- ClientValidationComponent -->
<g id="node5" class="node">
<title>ClientValidationComponent</title>
<polygon fill="#ffffb3" stroke="#000000" points="3327.1539,-198 3152.8461,-198 3152.8461,-162 3327.1539,-162 3327.1539,-198"/>
<text text-anchor="middle" x="3240" y="-175.8" font-family="Times,serif" font-size="14.00" fill="#000000">ClientValidationComponent</text>
</g>
<!-- ClientValidationComponent&#45;&gt;AppModule -->
<g id="edge5" class="edge">
<title>ClientValidationComponent&#45;&gt;AppModule</title>
<path fill="none" stroke="#000000" d="M3240,-198.2228C3240,-218.3652 3240,-248 3240,-248 3240,-248 2082.9676,-248 2082.9676,-248"/>
<polygon fill="#000000" stroke="#000000" points="2082.9676,-244.5001 2072.9676,-248 2082.9676,-251.5001 2082.9676,-244.5001"/>
</g>
<!-- ClinicalHistoryComponent -->
<g id="node6" class="node">
<title>ClinicalHistoryComponent</title>
<polygon fill="#ffffb3" stroke="#000000" points="3134.654,-198 2967.346,-198 2967.346,-162 3134.654,-162 3134.654,-198"/>
<text text-anchor="middle" x="3051" y="-175.8" font-family="Times,serif" font-size="14.00" fill="#000000">ClinicalHistoryComponent</text>
</g>
<!-- ClinicalHistoryComponent&#45;&gt;AppModule -->
<g id="edge6" class="edge">
<title>ClinicalHistoryComponent&#45;&gt;AppModule</title>
<path fill="none" stroke="#000000" d="M3051,-198.1061C3051,-217.3391 3051,-245 3051,-245 3051,-245 2082.8868,-245 2082.8868,-245"/>
<polygon fill="#000000" stroke="#000000" points="2082.8868,-241.5001 2072.8868,-245 2082.8868,-248.5001 2082.8868,-241.5001"/>
</g>
<!-- DoctorRegistrationComponent -->
<g id="node7" class="node">
<title>DoctorRegistrationComponent</title>
<polygon fill="#ffffb3" stroke="#000000" points="2949.1385,-198 2760.8615,-198 2760.8615,-162 2949.1385,-162 2949.1385,-198"/>
<text text-anchor="middle" x="2855" y="-175.8" font-family="Times,serif" font-size="14.00" fill="#000000">DoctorRegistrationComponent</text>
</g>
<!-- DoctorRegistrationComponent&#45;&gt;AppModule -->
<g id="edge7" class="edge">
<title>DoctorRegistrationComponent&#45;&gt;AppModule</title>
<path fill="none" stroke="#000000" d="M2855,-198.2667C2855,-216.5552 2855,-242 2855,-242 2855,-242 2082.7106,-242 2082.7106,-242"/>
<polygon fill="#000000" stroke="#000000" points="2082.7107,-238.5001 2072.7106,-242 2082.7106,-245.5001 2082.7107,-238.5001"/>
</g>
<!-- FooterComponent -->
<g id="node8" class="node">
<title>FooterComponent</title>
<polygon fill="#ffffb3" stroke="#000000" points="2742.8809,-198 2625.1191,-198 2625.1191,-162 2742.8809,-162 2742.8809,-198"/>
<text text-anchor="middle" x="2684" y="-175.8" font-family="Times,serif" font-size="14.00" fill="#000000">FooterComponent</text>
</g>
<!-- FooterComponent&#45;&gt;AppModule -->
<g id="edge8" class="edge">
<title>FooterComponent&#45;&gt;AppModule</title>
<path fill="none" stroke="#000000" d="M2684,-198.0225C2684,-215.3734 2684,-239 2684,-239 2684,-239 2082.8414,-239 2082.8414,-239"/>
<polygon fill="#000000" stroke="#000000" points="2082.8415,-235.5001 2072.8414,-239 2082.8414,-242.5001 2082.8415,-235.5001"/>
</g>
<!-- HeaderComponent -->
<g id="node9" class="node">
<title>HeaderComponent</title>
<polygon fill="#ffffb3" stroke="#000000" points="2606.7437,-198 2485.2563,-198 2485.2563,-162 2606.7437,-162 2606.7437,-198"/>
<text text-anchor="middle" x="2546" y="-175.8" font-family="Times,serif" font-size="14.00" fill="#000000">HeaderComponent</text>
</g>
<!-- HeaderComponent&#45;&gt;AppModule -->
<g id="edge9" class="edge">
<title>HeaderComponent&#45;&gt;AppModule</title>
<path fill="none" stroke="#000000" d="M2546,-198.027C2546,-214.3976 2546,-236 2546,-236 2546,-236 2082.7084,-236 2082.7084,-236"/>
<polygon fill="#000000" stroke="#000000" points="2082.7084,-232.5001 2072.7084,-236 2082.7083,-239.5001 2082.7084,-232.5001"/>
</g>
<!-- HomeComponent -->
<g id="node10" class="node">
<title>HomeComponent</title>
<polygon fill="#ffffb3" stroke="#000000" points="2466.5451,-198 2351.4549,-198 2351.4549,-162 2466.5451,-162 2466.5451,-198"/>
<text text-anchor="middle" x="2409" y="-175.8" font-family="Times,serif" font-size="14.00" fill="#000000">HomeComponent</text>
</g>
<!-- HomeComponent&#45;&gt;AppModule -->
<g id="edge10" class="edge">
<title>HomeComponent&#45;&gt;AppModule</title>
<path fill="none" stroke="#000000" d="M2409,-198.2396C2409,-213.5706 2409,-233 2409,-233 2409,-233 2082.8969,-233 2082.8969,-233"/>
<polygon fill="#000000" stroke="#000000" points="2082.8969,-229.5001 2072.8969,-233 2082.8968,-236.5001 2082.8969,-229.5001"/>
</g>
<!-- InterviewInformationsComponent -->
<g id="node11" class="node">
<title>InterviewInformationsComponent</title>
<polygon fill="#ffffb3" stroke="#000000" points="2333.7836,-198 2126.2164,-198 2126.2164,-162 2333.7836,-162 2333.7836,-198"/>
<text text-anchor="middle" x="2230" y="-175.8" font-family="Times,serif" font-size="14.00" fill="#000000">InterviewInformationsComponent</text>
</g>
<!-- InterviewInformationsComponent&#45;&gt;AppModule -->
<g id="edge11" class="edge">
<title>InterviewInformationsComponent&#45;&gt;AppModule</title>
<path fill="none" stroke="#000000" d="M2230,-198.0511C2230,-212.373 2230,-230 2230,-230 2230,-230 2082.7169,-230 2082.7169,-230"/>
<polygon fill="#000000" stroke="#000000" points="2082.717,-226.5001 2072.7169,-230 2082.7169,-233.5001 2082.717,-226.5001"/>
</g>
<!-- LandingPageComponent -->
<g id="node12" class="node">
<title>LandingPageComponent</title>
<polygon fill="#ffffb3" stroke="#000000" points="2108.7021,-198 1953.2979,-198 1953.2979,-162 2108.7021,-162 2108.7021,-198"/>
<text text-anchor="middle" x="2031" y="-175.8" font-family="Times,serif" font-size="14.00" fill="#000000">LandingPageComponent</text>
</g>
<!-- LandingPageComponent&#45;&gt;AppModule -->
<g id="edge12" class="edge">
<title>LandingPageComponent&#45;&gt;AppModule</title>
<path fill="none" stroke="#000000" d="M2031,-198.1061C2031,-198.1061 2031,-216.991 2031,-216.991"/>
<polygon fill="#000000" stroke="#000000" points="2027.5001,-216.9909 2031,-226.991 2034.5001,-216.991 2027.5001,-216.9909"/>
</g>
<!-- MisServiciosComponent -->
<g id="node13" class="node">
<title>MisServiciosComponent</title>
<polygon fill="#ffffb3" stroke="#000000" points="1935.7105,-198 1780.2895,-198 1780.2895,-162 1935.7105,-162 1935.7105,-198"/>
<text text-anchor="middle" x="1858" y="-175.8" font-family="Times,serif" font-size="14.00" fill="#000000">MisServiciosComponent</text>
</g>
<!-- MisServiciosComponent&#45;&gt;AppModule -->
<g id="edge13" class="edge">
<title>MisServiciosComponent&#45;&gt;AppModule</title>
<path fill="none" stroke="#000000" d="M1858,-198.0511C1858,-212.373 1858,-230 1858,-230 1858,-230 1979.1215,-230 1979.1215,-230"/>
<polygon fill="#000000" stroke="#000000" points="1979.1216,-233.5001 1989.1215,-230 1979.1215,-226.5001 1979.1216,-233.5001"/>
</g>
<!-- NurseRegistrationComponent -->
<g id="node14" class="node">
<title>NurseRegistrationComponent</title>
<polygon fill="#ffffb3" stroke="#000000" points="1762.6923,-198 1579.3077,-198 1579.3077,-162 1762.6923,-162 1762.6923,-198"/>
<text text-anchor="middle" x="1671" y="-175.8" font-family="Times,serif" font-size="14.00" fill="#000000">NurseRegistrationComponent</text>
</g>
<!-- NurseRegistrationComponent&#45;&gt;AppModule -->
<g id="edge14" class="edge">
<title>NurseRegistrationComponent&#45;&gt;AppModule</title>
<path fill="none" stroke="#000000" d="M1671,-198.2396C1671,-213.5706 1671,-233 1671,-233 1671,-233 1978.9989,-233 1978.9989,-233"/>
<polygon fill="#000000" stroke="#000000" points="1978.9989,-236.5001 1988.9989,-233 1978.9988,-229.5001 1978.9989,-236.5001"/>
</g>
<!-- RequestServiceComponent -->
<g id="node15" class="node">
<title>RequestServiceComponent</title>
<polygon fill="#ffffb3" stroke="#000000" points="1561.4115,-198 1392.5885,-198 1392.5885,-162 1561.4115,-162 1561.4115,-198"/>
<text text-anchor="middle" x="1477" y="-175.8" font-family="Times,serif" font-size="14.00" fill="#000000">RequestServiceComponent</text>
</g>
<!-- RequestServiceComponent&#45;&gt;AppModule -->
<g id="edge15" class="edge">
<title>RequestServiceComponent&#45;&gt;AppModule</title>
<path fill="none" stroke="#000000" d="M1477,-198.027C1477,-214.3976 1477,-236 1477,-236 1477,-236 1978.9052,-236 1978.9052,-236"/>
<polygon fill="#000000" stroke="#000000" points="1978.9053,-239.5001 1988.9052,-236 1978.9052,-232.5001 1978.9053,-239.5001"/>
</g>
<!-- SignInComponent -->
<g id="node16" class="node">
<title>SignInComponent</title>
<polygon fill="#ffffb3" stroke="#000000" points="1374.1667,-198 1255.8333,-198 1255.8333,-162 1374.1667,-162 1374.1667,-198"/>
<text text-anchor="middle" x="1315" y="-175.8" font-family="Times,serif" font-size="14.00" fill="#000000">SignInComponent</text>
</g>
<!-- SignInComponent&#45;&gt;AppModule -->
<g id="edge16" class="edge">
<title>SignInComponent&#45;&gt;AppModule</title>
<path fill="none" stroke="#000000" d="M1315,-198.0225C1315,-215.3734 1315,-239 1315,-239 1315,-239 1979.1474,-239 1979.1474,-239"/>
<polygon fill="#000000" stroke="#000000" points="1979.1474,-242.5001 1989.1474,-239 1979.1473,-235.5001 1979.1474,-242.5001"/>
</g>
<!-- SolicitarServicioComponent -->
<g id="node17" class="node">
<title>SolicitarServicioComponent</title>
<polygon fill="#ffffb3" stroke="#000000" points="1237.9213,-198 1062.0787,-198 1062.0787,-162 1237.9213,-162 1237.9213,-198"/>
<text text-anchor="middle" x="1150" y="-175.8" font-family="Times,serif" font-size="14.00" fill="#000000">SolicitarServicioComponent</text>
</g>
<!-- SolicitarServicioComponent&#45;&gt;AppModule -->
<g id="edge17" class="edge">
<title>SolicitarServicioComponent&#45;&gt;AppModule</title>
<path fill="none" stroke="#000000" d="M1150,-198.2667C1150,-216.5552 1150,-242 1150,-242 1150,-242 1979.1002,-242 1979.1002,-242"/>
<polygon fill="#000000" stroke="#000000" points="1979.1003,-245.5001 1989.1002,-242 1979.1002,-238.5001 1979.1003,-245.5001"/>
</g>
<!-- UpcomingInterviewsComponent -->
<g id="node18" class="node">
<title>UpcomingInterviewsComponent</title>
<polygon fill="#ffffb3" stroke="#000000" points="1044.5182,-198 845.4818,-198 845.4818,-162 1044.5182,-162 1044.5182,-198"/>
<text text-anchor="middle" x="945" y="-175.8" font-family="Times,serif" font-size="14.00" fill="#000000">UpcomingInterviewsComponent</text>
</g>
<!-- UpcomingInterviewsComponent&#45;&gt;AppModule -->
<g id="edge18" class="edge">
<title>UpcomingInterviewsComponent&#45;&gt;AppModule</title>
<path fill="none" stroke="#000000" d="M945,-198.1061C945,-217.3391 945,-245 945,-245 945,-245 1979.0929,-245 1979.0929,-245"/>
<polygon fill="#000000" stroke="#000000" points="1979.093,-248.5001 1989.0929,-245 1979.0929,-241.5001 1979.093,-248.5001"/>
</g>
<!-- AppComponent  -->
<g id="node22" class="node">
<title>AppComponent </title>
<polygon fill="#80b1d3" stroke="#000000" points="2085.439,-328 1976.561,-328 1976.561,-292 2085.439,-292 2085.439,-328"/>
<text text-anchor="middle" x="2031" y="-305.8" font-family="Times,serif" font-size="14.00" fill="#000000">AppComponent </text>
</g>
<!-- AppModule&#45;&gt;AppComponent  -->
<g id="edge21" class="edge">
<title>AppModule&#45;&gt;AppComponent </title>
<path fill="none" stroke="#000000" stroke-dasharray="1,5" d="M2031,-263.1061C2031,-263.1061 2031,-281.991 2031,-281.991"/>
<polygon fill="#000000" stroke="#000000" points="2027.5001,-281.9909 2031,-291.991 2034.5001,-281.991 2027.5001,-281.9909"/>
</g>
<!-- AppRoutingModule -->
<g id="node20" class="node">
<title>AppRoutingModule</title>
<polygon fill="#8dd3c7" stroke="#000000" points="821.2744,-198 818.2744,-202 797.2744,-202 794.2744,-198 692.7256,-198 692.7256,-162 821.2744,-162 821.2744,-198"/>
<text text-anchor="middle" x="757" y="-175.8" font-family="Times,serif" font-size="14.00" fill="#000000">AppRoutingModule</text>
</g>
<!-- AppRoutingModule&#45;&gt;AppModule -->
<g id="edge19" class="edge">
<title>AppRoutingModule&#45;&gt;AppModule</title>
<path fill="none" stroke="#000000" d="M757,-198.2228C757,-218.3652 757,-248 757,-248 757,-248 1979.3361,-248 1979.3361,-248"/>
<polygon fill="#000000" stroke="#000000" points="1979.3361,-251.5001 1989.3361,-248 1979.336,-244.5001 1979.3361,-251.5001"/>
</g>
<!-- SignInModuleModule -->
<g id="node21" class="node">
<title>SignInModuleModule</title>
<polygon fill="#8dd3c7" stroke="#000000" points="674.4341,-198 671.4341,-202 650.4341,-202 647.4341,-198 533.5659,-198 533.5659,-162 674.4341,-162 674.4341,-198"/>
<text text-anchor="middle" x="604" y="-175.8" font-family="Times,serif" font-size="14.00" fill="#000000">SignInModuleModule</text>
</g>
<!-- SignInModuleModule&#45;&gt;AppModule -->
<g id="edge20" class="edge">
<title>SignInModuleModule&#45;&gt;AppModule</title>
<path fill="none" stroke="#000000" d="M604,-198.2843C604,-219.3211 604,-251 604,-251 604,-251 1979.0654,-251 1979.0654,-251"/>
<polygon fill="#000000" stroke="#000000" points="1979.0655,-254.5001 1989.0654,-251 1979.0654,-247.5001 1979.0655,-254.5001"/>
</g>
<!-- AuthGuardService -->
<g id="node23" class="node">
<title>AuthGuardService</title>
<ellipse fill="#fdb462" stroke="#000000" cx="427" cy="-180" rx="83.3674" ry="18"/>
<text text-anchor="middle" x="427" y="-175.8" font-family="Times,serif" font-size="14.00" fill="#000000">AuthGuardService</text>
</g>
<!-- AuthGuardService&#45;&gt;AppModule -->
<g id="edge22" class="edge">
<title>AuthGuardService&#45;&gt;AppModule</title>
<path fill="none" stroke="#000000" d="M427,-198.2921C427,-220.2057 427,-254 427,-254 427,-254 1979.3308,-254 1979.3308,-254"/>
<polygon fill="#000000" stroke="#000000" points="1979.3309,-257.5001 1989.3308,-254 1979.3308,-250.5001 1979.3309,-257.5001"/>
</g>
<!-- GetInfoService -->
<g id="node24" class="node">
<title>GetInfoService</title>
<ellipse fill="#fdb462" stroke="#000000" cx="256" cy="-180" rx="70.0403" ry="18"/>
<text text-anchor="middle" x="256" y="-175.8" font-family="Times,serif" font-size="14.00" fill="#000000">GetInfoService</text>
</g>
<!-- GetInfoService&#45;&gt;AppModule -->
<g id="edge23" class="edge">
<title>GetInfoService&#45;&gt;AppModule</title>
<path fill="none" stroke="#000000" d="M256,-198.2479C256,-221.0179 256,-257 256,-257 256,-257 1979.3066,-257 1979.3066,-257"/>
<polygon fill="#000000" stroke="#000000" points="1979.3066,-260.5001 1989.3066,-257 1979.3065,-253.5001 1979.3066,-260.5001"/>
</g>
<!-- RegisterService -->
<g id="node25" class="node">
<title>RegisterService</title>
<ellipse fill="#fdb462" stroke="#000000" cx="96" cy="-180" rx="72.3439" ry="18"/>
<text text-anchor="middle" x="96" y="-175.8" font-family="Times,serif" font-size="14.00" fill="#000000">RegisterService</text>
</g>
<!-- RegisterService&#45;&gt;AppModule -->
<g id="edge24" class="edge">
<title>RegisterService&#45;&gt;AppModule</title>
<path fill="none" stroke="#000000" d="M96,-198.1532C96,-221.7566 96,-260 96,-260 96,-260 1979.2385,-260 1979.2385,-260"/>
<polygon fill="#000000" stroke="#000000" points="1979.2386,-263.5001 1989.2385,-260 1979.2385,-256.5001 1979.2386,-263.5001"/>
</g>
<!-- SignInServiceService -->
<g id="node26" class="node">
<title>SignInServiceService</title>
<ellipse fill="#fdb462" stroke="#000000" cx="604" cy="-104" rx="94.8993" ry="18"/>
<text text-anchor="middle" x="604" y="-99.8" font-family="Times,serif" font-size="14.00" fill="#000000">SignInServiceService</text>
</g>
<!-- SignInServiceService&#45;&gt;SignInModuleModule -->
<g id="edge25" class="edge">
<title>SignInServiceService&#45;&gt;SignInModuleModule</title>
<path fill="none" stroke="#000000" d="M604,-122.0109C604,-122.0109 604,-151.855 604,-151.855"/>
<polygon fill="#000000" stroke="#000000" points="600.5001,-151.8549 604,-161.855 607.5001,-151.855 600.5001,-151.8549"/>
</g>
</g>
</svg>
