<?xml version="1.0" encoding="UTF-8" standalone="no"?>
<!DOCTYPE svg PUBLIC "-//W3C//DTD SVG 1.1//EN"
 "http://www.w3.org/Graphics/SVG/1.1/DTD/svg11.dtd">
<!-- Generated by graphviz version 2.40.1 (20161225.0304)
 -->
<!-- Title: dependencies Pages: 1 -->
<svg width="2145pt" height="360pt"
 viewBox="0.00 0.00 2145.00 360.00" xmlns="http://www.w3.org/2000/svg" xmlns:xlink="http://www.w3.org/1999/xlink">
<g id="graph0" class="graph" transform="scale(1 1) rotate(0) translate(4 356)">
<title>dependencies</title>
<polygon fill="#ffffff" stroke="transparent" points="-4,4 -4,-356 2141,-356 2141,4 -4,4"/>
<text text-anchor="start" x="1047.5091" y="-42.4" font-family="sans-serif" font-weight="bold" font-size="14.00" fill="#000000">Legend</text>
<polygon fill="#ffffb3" stroke="transparent" points="834.5,-10 834.5,-30 854.5,-30 854.5,-10 834.5,-10"/>
<text text-anchor="start" x="858.129" y="-15.4" font-family="sans-serif" font-size="14.00" fill="#000000"> &#160;Declarations</text>
<polygon fill="#8dd3c7" stroke="transparent" points="947.5,-10 947.5,-30 967.5,-30 967.5,-10 947.5,-10"/>
<text text-anchor="start" x="971.2251" y="-15.4" font-family="sans-serif" font-size="14.00" fill="#000000"> &#160;Module</text>
<polygon fill="#80b1d3" stroke="transparent" points="1033.5,-10 1033.5,-30 1053.5,-30 1053.5,-10 1033.5,-10"/>
<text text-anchor="start" x="1057.2812" y="-15.4" font-family="sans-serif" font-size="14.00" fill="#000000"> &#160;Bootstrap</text>
<polygon fill="#fdb462" stroke="transparent" points="1130.5,-10 1130.5,-30 1150.5,-30 1150.5,-10 1130.5,-10"/>
<text text-anchor="start" x="1154.1732" y="-15.4" font-family="sans-serif" font-size="14.00" fill="#000000"> &#160;Providers</text>
<polygon fill="#fb8072" stroke="transparent" points="1226.5,-10 1226.5,-30 1246.5,-30 1246.5,-10 1226.5,-10"/>
<text text-anchor="start" x="1250.2258" y="-15.4" font-family="sans-serif" font-size="14.00" fill="#000000"> &#160;Exports</text>
<g id="clust1" class="cluster">
<title>cluster_AppModule</title>
<polygon fill="none" stroke="#000000" stroke-dasharray="1,5" points="8,-146 8,-344 2129,-344 2129,-146 8,-146"/>
</g>
<g id="clust2" class="cluster">
<title>cluster_AppModule_declarations</title>
<polygon fill="none" stroke="#000000" points="680,-154 680,-206 2121,-206 2121,-154 680,-154"/>
</g>
<g id="clust12" class="cluster">
<title>cluster_AppModule_imports</title>
<polygon fill="none" stroke="#000000" points="369,-154 369,-206 672,-206 672,-154 369,-154"/>
</g>
<g id="clust14" class="cluster">
<title>cluster_AppModule_bootstrap</title>
<polygon fill="none" stroke="#000000" points="1006,-284 1006,-336 1130,-336 1130,-284 1006,-284"/>
</g>
<g id="clust15" class="cluster">
<title>cluster_AppModule_providers</title>
<polygon fill="none" stroke="#000000" points="16,-154 16,-206 361,-206 361,-154 16,-154"/>
</g>
<g id="clust22" class="cluster">
<title>cluster_SignInModuleModule</title>
<polygon fill="none" stroke="#000000" stroke-dasharray="1,5" points="123,-70 123,-138 765,-138 765,-70 123,-70"/>
</g>
<g id="clust23" class="cluster">
<title>cluster_SignInModuleModule_declarations</title>
<polygon fill="none" stroke="#000000" points="557,-78 557,-130 757,-130 757,-78 557,-78"/>
</g>
<g id="clust27" class="cluster">
<title>cluster_SignInModuleModule_bootstrap</title>
<polygon fill="none" stroke="#000000" points="345,-78 345,-130 549,-130 549,-78 345,-78"/>
</g>
<g id="clust28" class="cluster">
<title>cluster_SignInModuleModule_providers</title>
<polygon fill="none" stroke="#000000" points="131,-78 131,-130 337,-130 337,-78 131,-78"/>
</g>
<!-- AdultFormComponent -->
<g id="node1" class="node">
<title>AdultFormComponent</title>
<polygon fill="#ffffb3" stroke="#000000" points="2112.5547,-198 1969.4453,-198 1969.4453,-162 2112.5547,-162 2112.5547,-198"/>
<text text-anchor="middle" x="2041" y="-175.8" font-family="Times,serif" font-size="14.00" fill="#000000">AdultFormComponent</text>
</g>
<!-- AppModule -->
<g id="node10" class="node">
<title>AppModule</title>
<polygon fill="#8dd3c7" stroke="#000000" points="1109.6571,-263 1106.6571,-267 1085.6571,-267 1082.6571,-263 1026.3429,-263 1026.3429,-227 1109.6571,-227 1109.6571,-263"/>
<text text-anchor="middle" x="1068" y="-240.8" font-family="Times,serif" font-size="14.00" fill="#000000">AppModule</text>
</g>
<!-- AdultFormComponent&#45;&gt;AppModule -->
<g id="edge1" class="edge">
<title>AdultFormComponent&#45;&gt;AppModule</title>
<path fill="none" stroke="#000000" d="M2041,-198.0908C2041,-221.1328 2041,-258 2041,-258 2041,-258 1119.8086,-258 1119.8086,-258"/>
<polygon fill="#000000" stroke="#000000" points="1119.8086,-254.5001 1109.8086,-258 1119.8086,-261.5001 1119.8086,-254.5001"/>
</g>
<!-- AppComponent -->
<g id="node2" class="node">
<title>AppComponent</title>
<polygon fill="#ffffb3" stroke="#000000" points="1951.9399,-198 1846.0601,-198 1846.0601,-162 1951.9399,-162 1951.9399,-198"/>
<text text-anchor="middle" x="1899" y="-175.8" font-family="Times,serif" font-size="14.00" fill="#000000">AppComponent</text>
</g>
<!-- AppComponent&#45;&gt;AppModule -->
<g id="edge2" class="edge">
<title>AppComponent&#45;&gt;AppModule</title>
<path fill="none" stroke="#000000" d="M1899,-198.0449C1899,-219.6623 1899,-253 1899,-253 1899,-253 1119.7789,-253 1119.7789,-253"/>
<polygon fill="#000000" stroke="#000000" points="1119.7789,-249.5001 1109.7789,-253 1119.7789,-256.5001 1119.7789,-249.5001"/>
</g>
<!-- ClientValidationComponent -->
<g id="node3" class="node">
<title>ClientValidationComponent</title>
<polygon fill="#ffffb3" stroke="#000000" points="1828.1539,-198 1653.8461,-198 1653.8461,-162 1828.1539,-162 1828.1539,-198"/>
<text text-anchor="middle" x="1741" y="-175.8" font-family="Times,serif" font-size="14.00" fill="#000000">ClientValidationComponent</text>
</g>
<!-- ClientValidationComponent&#45;&gt;AppModule -->
<g id="edge3" class="edge">
<title>ClientValidationComponent&#45;&gt;AppModule</title>
<path fill="none" stroke="#000000" d="M1741,-198.2228C1741,-218.3652 1741,-248 1741,-248 1741,-248 1119.8449,-248 1119.8449,-248"/>
<polygon fill="#000000" stroke="#000000" points="1119.8449,-244.5001 1109.8449,-248 1119.8449,-251.5001 1119.8449,-244.5001"/>
</g>
<!-- DoctorRegistrationComponent -->
<g id="node4" class="node">
<title>DoctorRegistrationComponent</title>
<polygon fill="#ffffb3" stroke="#000000" points="1635.1385,-198 1446.8615,-198 1446.8615,-162 1635.1385,-162 1635.1385,-198"/>
<text text-anchor="middle" x="1541" y="-175.8" font-family="Times,serif" font-size="14.00" fill="#000000">DoctorRegistrationComponent</text>
</g>
<!-- DoctorRegistrationComponent&#45;&gt;AppModule -->
<g id="edge4" class="edge">
<title>DoctorRegistrationComponent&#45;&gt;AppModule</title>
<path fill="none" stroke="#000000" d="M1541,-198.2222C1541,-216.8285 1541,-243 1541,-243 1541,-243 1119.9756,-243 1119.9756,-243"/>
<polygon fill="#000000" stroke="#000000" points="1119.9756,-239.5001 1109.9756,-243 1119.9756,-246.5001 1119.9756,-239.5001"/>
</g>
<!-- FooterComponent -->
<g id="node5" class="node">
<title>FooterComponent</title>
<polygon fill="#ffffb3" stroke="#000000" points="1428.8809,-198 1311.1191,-198 1311.1191,-162 1428.8809,-162 1428.8809,-198"/>
<text text-anchor="middle" x="1370" y="-175.8" font-family="Times,serif" font-size="14.00" fill="#000000">FooterComponent</text>
</g>
<!-- FooterComponent&#45;&gt;AppModule -->
<g id="edge5" class="edge">
<title>FooterComponent&#45;&gt;AppModule</title>
<path fill="none" stroke="#000000" d="M1370,-198.0336C1370,-215.0597 1370,-238 1370,-238 1370,-238 1119.6747,-238 1119.6747,-238"/>
<polygon fill="#000000" stroke="#000000" points="1119.6748,-234.5001 1109.6747,-238 1119.6747,-241.5001 1119.6748,-234.5001"/>
</g>
<!-- HomeComponent -->
<g id="node6" class="node">
<title>HomeComponent</title>
<polygon fill="#ffffb3" stroke="#000000" points="1292.5451,-198 1177.4549,-198 1177.4549,-162 1292.5451,-162 1292.5451,-198"/>
<text text-anchor="middle" x="1235" y="-175.8" font-family="Times,serif" font-size="14.00" fill="#000000">HomeComponent</text>
</g>
<!-- HomeComponent&#45;&gt;AppModule -->
<g id="edge6" class="edge">
<title>HomeComponent&#45;&gt;AppModule</title>
<path fill="none" stroke="#000000" d="M1235,-198.2396C1235,-213.5706 1235,-233 1235,-233 1235,-233 1119.7104,-233 1119.7104,-233"/>
<polygon fill="#000000" stroke="#000000" points="1119.7104,-229.5001 1109.7104,-233 1119.7103,-236.5001 1119.7104,-229.5001"/>
</g>
<!-- NurseRegistrationComponent -->
<g id="node7" class="node">
<title>NurseRegistrationComponent</title>
<polygon fill="#ffffb3" stroke="#000000" points="1159.6923,-198 976.3077,-198 976.3077,-162 1159.6923,-162 1159.6923,-198"/>
<text text-anchor="middle" x="1068" y="-175.8" font-family="Times,serif" font-size="14.00" fill="#000000">NurseRegistrationComponent</text>
</g>
<!-- NurseRegistrationComponent&#45;&gt;AppModule -->
<g id="edge7" class="edge">
<title>NurseRegistrationComponent&#45;&gt;AppModule</title>
<path fill="none" stroke="#000000" d="M1068,-198.1061C1068,-198.1061 1068,-216.991 1068,-216.991"/>
<polygon fill="#000000" stroke="#000000" points="1064.5001,-216.9909 1068,-226.991 1071.5001,-216.991 1064.5001,-216.9909"/>
</g>
<!-- TableComponent -->
<g id="node8" class="node">
<title>TableComponent</title>
<polygon fill="#ffffb3" stroke="#000000" points="958.705,-198 845.295,-198 845.295,-162 958.705,-162 958.705,-198"/>
<text text-anchor="middle" x="902" y="-175.8" font-family="Times,serif" font-size="14.00" fill="#000000">TableComponent</text>
</g>
<!-- TableComponent&#45;&gt;AppModule -->
<g id="edge8" class="edge">
<title>TableComponent&#45;&gt;AppModule</title>
<path fill="none" stroke="#000000" d="M902,-198.2396C902,-213.5706 902,-233 902,-233 902,-233 1016.1112,-233 1016.1112,-233"/>
<polygon fill="#000000" stroke="#000000" points="1016.1112,-236.5001 1026.1112,-233 1016.1112,-229.5001 1016.1112,-236.5001"/>
</g>
<!-- TableRowComponent -->
<g id="node9" class="node">
<title>TableRowComponent</title>
<polygon fill="#ffffb3" stroke="#000000" points="827.6484,-198 688.3516,-198 688.3516,-162 827.6484,-162 827.6484,-198"/>
<text text-anchor="middle" x="758" y="-175.8" font-family="Times,serif" font-size="14.00" fill="#000000">TableRowComponent</text>
</g>
<!-- TableRowComponent&#45;&gt;AppModule -->
<g id="edge9" class="edge">
<title>TableRowComponent&#45;&gt;AppModule</title>
<path fill="none" stroke="#000000" d="M758,-198.0336C758,-215.0597 758,-238 758,-238 758,-238 1016.192,-238 1016.192,-238"/>
<polygon fill="#000000" stroke="#000000" points="1016.1921,-241.5001 1026.192,-238 1016.192,-234.5001 1016.1921,-241.5001"/>
</g>
<!-- AppComponent  -->
<g id="node13" class="node">
<title>AppComponent </title>
<polygon fill="#80b1d3" stroke="#000000" points="1122.439,-328 1013.561,-328 1013.561,-292 1122.439,-292 1122.439,-328"/>
<text text-anchor="middle" x="1068" y="-305.8" font-family="Times,serif" font-size="14.00" fill="#000000">AppComponent </text>
</g>
<!-- AppModule&#45;&gt;AppComponent  -->
<g id="edge12" class="edge">
<title>AppModule&#45;&gt;AppComponent </title>
<path fill="none" stroke="#000000" stroke-dasharray="1,5" d="M1068,-263.1061C1068,-263.1061 1068,-281.991 1068,-281.991"/>
<polygon fill="#000000" stroke="#000000" points="1064.5001,-281.9909 1068,-291.991 1071.5001,-281.991 1064.5001,-281.9909"/>
</g>
<!-- AppRoutingModule -->
<g id="node11" class="node">
<title>AppRoutingModule</title>
<polygon fill="#8dd3c7" stroke="#000000" points="664.2744,-198 661.2744,-202 640.2744,-202 637.2744,-198 535.7256,-198 535.7256,-162 664.2744,-162 664.2744,-198"/>
<text text-anchor="middle" x="600" y="-175.8" font-family="Times,serif" font-size="14.00" fill="#000000">AppRoutingModule</text>
</g>
<!-- AppRoutingModule&#45;&gt;AppModule -->
<g id="edge10" class="edge">
<title>AppRoutingModule&#45;&gt;AppModule</title>
<path fill="none" stroke="#000000" d="M600,-198.2222C600,-216.8285 600,-243 600,-243 600,-243 1016.0563,-243 1016.0563,-243"/>
<polygon fill="#000000" stroke="#000000" points="1016.0563,-246.5001 1026.0563,-243 1016.0562,-239.5001 1016.0563,-246.5001"/>
</g>
<!-- SignInModuleModule -->
<g id="node12" class="node">
<title>SignInModuleModule</title>
<polygon fill="#8dd3c7" stroke="#000000" points="517.4341,-198 514.4341,-202 493.4341,-202 490.4341,-198 376.5659,-198 376.5659,-162 517.4341,-162 517.4341,-198"/>
<text text-anchor="middle" x="447" y="-175.8" font-family="Times,serif" font-size="14.00" fill="#000000">SignInModuleModule</text>
</g>
<!-- SignInModuleModule&#45;&gt;AppModule -->
<g id="edge11" class="edge">
<title>SignInModuleModule&#45;&gt;AppModule</title>
<path fill="none" stroke="#000000" d="M447,-198.2228C447,-218.3652 447,-248 447,-248 447,-248 1016.2902,-248 1016.2902,-248"/>
<polygon fill="#000000" stroke="#000000" points="1016.2902,-251.5001 1026.2902,-248 1016.2901,-244.5001 1016.2902,-251.5001"/>
</g>
<!-- SignInComponentComponent  -->
<g id="node17" class="node">
<title>SignInComponentComponent </title>
<polygon fill="#80b1d3" stroke="#000000" points="540.9993,-122 353.0007,-122 353.0007,-86 540.9993,-86 540.9993,-122"/>
<text text-anchor="middle" x="447" y="-99.8" font-family="Times,serif" font-size="14.00" fill="#000000">SignInComponentComponent </text>
</g>
<!-- SignInModuleModule&#45;&gt;SignInComponentComponent  -->
<g id="edge16" class="edge">
<title>SignInModuleModule&#45;&gt;SignInComponentComponent </title>
<path fill="none" stroke="#000000" stroke-dasharray="1,5" d="M447,-161.9891C447,-161.9891 447,-132.145 447,-132.145"/>
<polygon fill="#000000" stroke="#000000" points="450.5001,-132.145 447,-122.145 443.5001,-132.1451 450.5001,-132.145"/>
</g>
<!-- AuthGuardService -->
<g id="node14" class="node">
<title>AuthGuardService</title>
<ellipse fill="#fdb462" stroke="#000000" cx="270" cy="-180" rx="83.3674" ry="18"/>
<text text-anchor="middle" x="270" y="-175.8" font-family="Times,serif" font-size="14.00" fill="#000000">AuthGuardService</text>
</g>
<!-- AuthGuardService&#45;&gt;AppModule -->
<g id="edge13" class="edge">
<title>AuthGuardService&#45;&gt;AppModule</title>
<path fill="none" stroke="#000000" d="M270,-198.0449C270,-219.6623 270,-253 270,-253 270,-253 1016.2196,-253 1016.2196,-253"/>
<polygon fill="#000000" stroke="#000000" points="1016.2196,-256.5001 1026.2196,-253 1016.2196,-249.5001 1016.2196,-256.5001"/>
</g>
<!-- RegisterService -->
<g id="node15" class="node">
<title>RegisterService</title>
<ellipse fill="#fdb462" stroke="#000000" cx="96" cy="-180" rx="72.3439" ry="18"/>
<text text-anchor="middle" x="96" y="-175.8" font-family="Times,serif" font-size="14.00" fill="#000000">RegisterService</text>
</g>
<!-- RegisterService&#45;&gt;AppModule -->
<g id="edge14" class="edge">
<title>RegisterService&#45;&gt;AppModule</title>
<path fill="none" stroke="#000000" d="M96,-198.0908C96,-221.1328 96,-258 96,-258 96,-258 1016.2344,-258 1016.2344,-258"/>
<polygon fill="#000000" stroke="#000000" points="1016.2344,-261.5001 1026.2344,-258 1016.2343,-254.5001 1016.2344,-261.5001"/>
</g>
<!-- SignInComponentComponent -->
<g id="node16" class="node">
<title>SignInComponentComponent</title>
<polygon fill="#ffffb3" stroke="#000000" points="748.9986,-122 565.0014,-122 565.0014,-86 748.9986,-86 748.9986,-122"/>
<text text-anchor="middle" x="657" y="-99.8" font-family="Times,serif" font-size="14.00" fill="#000000">SignInComponentComponent</text>
</g>
<!-- SignInComponentComponent&#45;&gt;SignInModuleModule -->
<g id="edge15" class="edge">
<title>SignInComponentComponent&#45;&gt;SignInModuleModule</title>
<path fill="none" stroke="#000000" d="M614.6939,-122.0439C614.6939,-134.5633 614.6939,-149 614.6939,-149 614.6939,-149 482.1084,-149 482.1084,-149 482.1084,-149 482.1084,-151.9672 482.1084,-151.9672"/>
<polygon fill="#000000" stroke="#000000" points="478.6084,-151.9671 482.1084,-161.9672 485.6084,-151.9672 478.6084,-151.9671"/>
</g>
<!-- SignInServiceService -->
<g id="node18" class="node">
<title>SignInServiceService</title>
<ellipse fill="#fdb462" stroke="#000000" cx="234" cy="-104" rx="94.8993" ry="18"/>
<text text-anchor="middle" x="234" y="-99.8" font-family="Times,serif" font-size="14.00" fill="#000000">SignInServiceService</text>
</g>
<!-- SignInServiceService&#45;&gt;SignInModuleModule -->
<g id="edge17" class="edge">
<title>SignInServiceService&#45;&gt;SignInModuleModule</title>
<path fill="none" stroke="#000000" d="M257.6329,-121.498C257.6329,-128.9688 257.6329,-136 257.6329,-136 257.6329,-136 411.8917,-136 411.8917,-136 411.8917,-136 411.8917,-151.8495 411.8917,-151.8495"/>
<polygon fill="#000000" stroke="#000000" points="408.3917,-151.8494 411.8917,-161.8495 415.3917,-151.8495 408.3917,-151.8494"/>
</g>
</g>
</svg>
