<?xml version="1.0" encoding="UTF-8" standalone="no"?>
<!DOCTYPE svg PUBLIC "-//W3C//DTD SVG 1.1//EN"
 "http://www.w3.org/Graphics/SVG/1.1/DTD/svg11.dtd">
<!-- Generated by graphviz version 2.40.1 (20161225.0304)
 -->
<!-- Title: dependencies Pages: 1 -->
<svg width="3655pt" height="360pt"
 viewBox="0.00 0.00 3655.00 360.00" xmlns="http://www.w3.org/2000/svg" xmlns:xlink="http://www.w3.org/1999/xlink">
<g id="graph0" class="graph" transform="scale(1 1) rotate(0) translate(4 356)">
<title>dependencies</title>
<polygon fill="#ffffff" stroke="transparent" points="-4,4 -4,-356 3651,-356 3651,4 -4,4"/>
<text text-anchor="start" x="1802.5091" y="-42.4" font-family="sans-serif" font-weight="bold" font-size="14.00" fill="#000000">Legend</text>
<polygon fill="#ffffb3" stroke="transparent" points="1589.5,-10 1589.5,-30 1609.5,-30 1609.5,-10 1589.5,-10"/>
<text text-anchor="start" x="1613.129" y="-15.4" font-family="sans-serif" font-size="14.00" fill="#000000"> &#160;Declarations</text>
<polygon fill="#8dd3c7" stroke="transparent" points="1702.5,-10 1702.5,-30 1722.5,-30 1722.5,-10 1702.5,-10"/>
<text text-anchor="start" x="1726.2251" y="-15.4" font-family="sans-serif" font-size="14.00" fill="#000000"> &#160;Module</text>
<polygon fill="#80b1d3" stroke="transparent" points="1788.5,-10 1788.5,-30 1808.5,-30 1808.5,-10 1788.5,-10"/>
<text text-anchor="start" x="1812.2812" y="-15.4" font-family="sans-serif" font-size="14.00" fill="#000000"> &#160;Bootstrap</text>
<polygon fill="#fdb462" stroke="transparent" points="1885.5,-10 1885.5,-30 1905.5,-30 1905.5,-10 1885.5,-10"/>
<text text-anchor="start" x="1909.1732" y="-15.4" font-family="sans-serif" font-size="14.00" fill="#000000"> &#160;Providers</text>
<polygon fill="#fb8072" stroke="transparent" points="1981.5,-10 1981.5,-30 2001.5,-30 2001.5,-10 1981.5,-10"/>
<text text-anchor="start" x="2005.2258" y="-15.4" font-family="sans-serif" font-size="14.00" fill="#000000"> &#160;Exports</text>
<g id="clust1" class="cluster">
<title>cluster_AppModule</title>
<polygon fill="none" stroke="#000000" stroke-dasharray="1,5" points="8,-146 8,-344 3639,-344 3639,-146 8,-146"/>
</g>
<g id="clust2" class="cluster">
<title>cluster_AppModule_declarations</title>
<polygon fill="none" stroke="#000000" points="837,-154 837,-206 3631,-206 3631,-154 837,-154"/>
</g>
<g id="clust19" class="cluster">
<title>cluster_AppModule_imports</title>
<polygon fill="none" stroke="#000000" points="526,-154 526,-206 829,-206 829,-154 526,-154"/>
</g>
<g id="clust21" class="cluster">
<title>cluster_AppModule_bootstrap</title>
<polygon fill="none" stroke="#000000" points="1802,-284 1802,-336 1926,-336 1926,-284 1802,-284"/>
</g>
<g id="clust22" class="cluster">
<title>cluster_AppModule_providers</title>
<polygon fill="none" stroke="#000000" points="16,-154 16,-206 518,-206 518,-154 16,-154"/>
</g>
<g id="clust29" class="cluster">
<title>cluster_SignInModuleModule</title>
<polygon fill="none" stroke="#000000" stroke-dasharray="1,5" points="493,-70 493,-138 715,-138 715,-70 493,-70"/>
</g>
<g id="clust34" class="cluster">
<title>cluster_SignInModuleModule_providers</title>
<polygon fill="none" stroke="#000000" points="501,-78 501,-130 707,-130 707,-78 501,-78"/>
</g>
<!-- AdultRegistrationComponent -->
<g id="node1" class="node">
<title>AdultRegistrationComponent</title>
<polygon fill="#ffffb3" stroke="#000000" points="3622.6539,-198 3441.3461,-198 3441.3461,-162 3622.6539,-162 3622.6539,-198"/>
<text text-anchor="middle" x="3532" y="-175.8" font-family="Times,serif" font-size="14.00" fill="#000000">AdultRegistrationComponent</text>
</g>
<!-- AppModule -->
<g id="node17" class="node">
<title>AppModule</title>
<polygon fill="#8dd3c7" stroke="#000000" points="1905.6571,-263 1902.6571,-267 1881.6571,-267 1878.6571,-263 1822.3429,-263 1822.3429,-227 1905.6571,-227 1905.6571,-263"/>
<text text-anchor="middle" x="1864" y="-240.8" font-family="Times,serif" font-size="14.00" fill="#000000">AppModule</text>
</g>
<!-- AdultRegistrationComponent&#45;&gt;AppModule -->
<g id="edge1" class="edge">
<title>AdultRegistrationComponent&#45;&gt;AppModule</title>
<path fill="none" stroke="#000000" d="M3532,-198.1532C3532,-221.7566 3532,-260 3532,-260 3532,-260 1916.0659,-260 1916.0659,-260"/>
<polygon fill="#000000" stroke="#000000" points="1916.066,-256.5001 1906.0659,-260 1916.0659,-263.5001 1916.066,-256.5001"/>
</g>
<!-- AppComponent -->
<g id="node2" class="node">
<title>AppComponent</title>
<polygon fill="#ffffb3" stroke="#000000" points="3422.9399,-198 3317.0601,-198 3317.0601,-162 3422.9399,-162 3422.9399,-198"/>
<text text-anchor="middle" x="3370" y="-175.8" font-family="Times,serif" font-size="14.00" fill="#000000">AppComponent</text>
</g>
<!-- AppComponent&#45;&gt;AppModule -->
<g id="edge2" class="edge">
<title>AppComponent&#45;&gt;AppModule</title>
<path fill="none" stroke="#000000" d="M3370,-198.2479C3370,-221.0179 3370,-257 3370,-257 3370,-257 1915.8509,-257 1915.8509,-257"/>
<polygon fill="#000000" stroke="#000000" points="1915.8509,-253.5001 1905.8509,-257 1915.8508,-260.5001 1915.8509,-253.5001"/>
</g>
<!-- AvailableDoctorsComponent -->
<g id="node3" class="node">
<title>AvailableDoctorsComponent</title>
<polygon fill="#ffffb3" stroke="#000000" points="3299.0716,-198 3118.9284,-198 3118.9284,-162 3299.0716,-162 3299.0716,-198"/>
<text text-anchor="middle" x="3209" y="-175.8" font-family="Times,serif" font-size="14.00" fill="#000000">AvailableDoctorsComponent</text>
</g>
<!-- AvailableDoctorsComponent&#45;&gt;AppModule -->
<g id="edge3" class="edge">
<title>AvailableDoctorsComponent&#45;&gt;AppModule</title>
<path fill="none" stroke="#000000" d="M3209,-198.2921C3209,-220.2057 3209,-254 3209,-254 3209,-254 1915.7281,-254 1915.7281,-254"/>
<polygon fill="#000000" stroke="#000000" points="1915.7281,-250.5001 1905.7281,-254 1915.728,-257.5001 1915.7281,-250.5001"/>
</g>
<!-- BannerComponent -->
<g id="node4" class="node">
<title>BannerComponent</title>
<polygon fill="#ffffb3" stroke="#000000" points="3100.759,-198 2979.241,-198 2979.241,-162 3100.759,-162 3100.759,-198"/>
<text text-anchor="middle" x="3040" y="-175.8" font-family="Times,serif" font-size="14.00" fill="#000000">BannerComponent</text>
</g>
<!-- BannerComponent&#45;&gt;AppModule -->
<g id="edge4" class="edge">
<title>BannerComponent&#45;&gt;AppModule</title>
<path fill="none" stroke="#000000" d="M3040,-198.0267C3040,-218.7672 3040,-250 3040,-250 3040,-250 1915.8545,-250 1915.8545,-250"/>
<polygon fill="#000000" stroke="#000000" points="1915.8545,-246.5001 1905.8545,-250 1915.8544,-253.5001 1915.8545,-246.5001"/>
</g>
<!-- ClientValidationComponent -->
<g id="node5" class="node">
<title>ClientValidationComponent</title>
<polygon fill="#ffffb3" stroke="#000000" points="2961.1539,-198 2786.8461,-198 2786.8461,-162 2961.1539,-162 2961.1539,-198"/>
<text text-anchor="middle" x="2874" y="-175.8" font-family="Times,serif" font-size="14.00" fill="#000000">ClientValidationComponent</text>
</g>
<!-- ClientValidationComponent&#45;&gt;AppModule -->
<g id="edge5" class="edge">
<title>ClientValidationComponent&#45;&gt;AppModule</title>
<path fill="none" stroke="#000000" d="M2874,-198.308C2874,-218.1455 2874,-247 2874,-247 2874,-247 1915.7938,-247 1915.7938,-247"/>
<polygon fill="#000000" stroke="#000000" points="1915.7939,-243.5001 1905.7938,-247 1915.7938,-250.5001 1915.7939,-243.5001"/>
</g>
<!-- ClinicalHistoryComponent -->
<g id="node6" class="node">
<title>ClinicalHistoryComponent</title>
<polygon fill="#ffffb3" stroke="#000000" points="2768.654,-198 2601.346,-198 2601.346,-162 2768.654,-162 2768.654,-198"/>
<text text-anchor="middle" x="2685" y="-175.8" font-family="Times,serif" font-size="14.00" fill="#000000">ClinicalHistoryComponent</text>
</g>
<!-- ClinicalHistoryComponent&#45;&gt;AppModule -->
<g id="edge6" class="edge">
<title>ClinicalHistoryComponent&#45;&gt;AppModule</title>
<path fill="none" stroke="#000000" d="M2685,-198.1686C2685,-217.0898 2685,-244 2685,-244 2685,-244 1915.8422,-244 1915.8422,-244"/>
<polygon fill="#000000" stroke="#000000" points="1915.8423,-240.5001 1905.8422,-244 1915.8422,-247.5001 1915.8423,-240.5001"/>
</g>
<!-- DoctorRegistrationComponent -->
<g id="node7" class="node">
<title>DoctorRegistrationComponent</title>
<polygon fill="#ffffb3" stroke="#000000" points="2583.1385,-198 2394.8615,-198 2394.8615,-162 2583.1385,-162 2583.1385,-198"/>
<text text-anchor="middle" x="2489" y="-175.8" font-family="Times,serif" font-size="14.00" fill="#000000">DoctorRegistrationComponent</text>
</g>
<!-- DoctorRegistrationComponent&#45;&gt;AppModule -->
<g id="edge7" class="edge">
<title>DoctorRegistrationComponent&#45;&gt;AppModule</title>
<path fill="none" stroke="#000000" d="M2489,-198.302C2489,-216.2699 2489,-241 2489,-241 2489,-241 1915.9785,-241 1915.9785,-241"/>
<polygon fill="#000000" stroke="#000000" points="1915.9785,-237.5001 1905.9785,-241 1915.9785,-244.5001 1915.9785,-237.5001"/>
</g>
<!-- FooterComponent -->
<g id="node8" class="node">
<title>FooterComponent</title>
<polygon fill="#ffffb3" stroke="#000000" points="2376.8809,-198 2259.1191,-198 2259.1191,-162 2376.8809,-162 2376.8809,-198"/>
<text text-anchor="middle" x="2318" y="-175.8" font-family="Times,serif" font-size="14.00" fill="#000000">FooterComponent</text>
</g>
<!-- FooterComponent&#45;&gt;AppModule -->
<g id="edge8" class="edge">
<title>FooterComponent&#45;&gt;AppModule</title>
<path fill="none" stroke="#000000" d="M2318,-198.0352C2318,-214.7344 2318,-237 2318,-237 2318,-237 1915.8975,-237 1915.8975,-237"/>
<polygon fill="#000000" stroke="#000000" points="1915.8975,-233.5001 1905.8975,-237 1915.8974,-240.5001 1915.8975,-233.5001"/>
</g>
<!-- HeaderComponent -->
<g id="node9" class="node">
<title>HeaderComponent</title>
<polygon fill="#ffffb3" stroke="#000000" points="2240.7437,-198 2119.2563,-198 2119.2563,-162 2240.7437,-162 2240.7437,-198"/>
<text text-anchor="middle" x="2180" y="-175.8" font-family="Times,serif" font-size="14.00" fill="#000000">HeaderComponent</text>
</g>
<!-- HeaderComponent&#45;&gt;AppModule -->
<g id="edge9" class="edge">
<title>HeaderComponent&#45;&gt;AppModule</title>
<path fill="none" stroke="#000000" d="M2180,-198.2819C2180,-213.9478 2180,-234 2180,-234 2180,-234 1915.9624,-234 1915.9624,-234"/>
<polygon fill="#000000" stroke="#000000" points="1915.9624,-230.5001 1905.9624,-234 1915.9623,-237.5001 1915.9624,-230.5001"/>
</g>
<!-- HomeComponent -->
<g id="node10" class="node">
<title>HomeComponent</title>
<polygon fill="#ffffb3" stroke="#000000" points="2100.5451,-198 1985.4549,-198 1985.4549,-162 2100.5451,-162 2100.5451,-198"/>
<text text-anchor="middle" x="2043" y="-175.8" font-family="Times,serif" font-size="14.00" fill="#000000">HomeComponent</text>
</g>
<!-- HomeComponent&#45;&gt;AppModule -->
<g id="edge10" class="edge">
<title>HomeComponent&#45;&gt;AppModule</title>
<path fill="none" stroke="#000000" d="M2043,-198.1243C2043,-212.7832 2043,-231 2043,-231 2043,-231 1915.9675,-231 1915.9675,-231"/>
<polygon fill="#000000" stroke="#000000" points="1915.9676,-227.5001 1905.9675,-231 1915.9675,-234.5001 1915.9676,-227.5001"/>
</g>
<!-- InterviewInformationsComponent -->
<g id="node11" class="node">
<title>InterviewInformationsComponent</title>
<polygon fill="#ffffb3" stroke="#000000" points="1967.7836,-198 1760.2164,-198 1760.2164,-162 1967.7836,-162 1967.7836,-198"/>
<text text-anchor="middle" x="1864" y="-175.8" font-family="Times,serif" font-size="14.00" fill="#000000">InterviewInformationsComponent</text>
</g>
<!-- InterviewInformationsComponent&#45;&gt;AppModule -->
<g id="edge11" class="edge">
<title>InterviewInformationsComponent&#45;&gt;AppModule</title>
<path fill="none" stroke="#000000" d="M1864,-198.1061C1864,-198.1061 1864,-216.991 1864,-216.991"/>
<polygon fill="#000000" stroke="#000000" points="1860.5001,-216.9909 1864,-226.991 1867.5001,-216.991 1860.5001,-216.9909"/>
</g>
<!-- LandingPageComponent -->
<g id="node12" class="node">
<title>LandingPageComponent</title>
<polygon fill="#ffffb3" stroke="#000000" points="1742.7021,-198 1587.2979,-198 1587.2979,-162 1742.7021,-162 1742.7021,-198"/>
<text text-anchor="middle" x="1665" y="-175.8" font-family="Times,serif" font-size="14.00" fill="#000000">LandingPageComponent</text>
</g>
<!-- LandingPageComponent&#45;&gt;AppModule -->
<g id="edge12" class="edge">
<title>LandingPageComponent&#45;&gt;AppModule</title>
<path fill="none" stroke="#000000" d="M1665,-198.1243C1665,-212.7832 1665,-231 1665,-231 1665,-231 1812.2831,-231 1812.2831,-231"/>
<polygon fill="#000000" stroke="#000000" points="1812.2831,-234.5001 1822.2831,-231 1812.283,-227.5001 1812.2831,-234.5001"/>
</g>
<!-- NurseRegistrationComponent -->
<g id="node13" class="node">
<title>NurseRegistrationComponent</title>
<polygon fill="#ffffb3" stroke="#000000" points="1569.6923,-198 1386.3077,-198 1386.3077,-162 1569.6923,-162 1569.6923,-198"/>
<text text-anchor="middle" x="1478" y="-175.8" font-family="Times,serif" font-size="14.00" fill="#000000">NurseRegistrationComponent</text>
</g>
<!-- NurseRegistrationComponent&#45;&gt;AppModule -->
<g id="edge13" class="edge">
<title>NurseRegistrationComponent&#45;&gt;AppModule</title>
<path fill="none" stroke="#000000" d="M1478,-198.2819C1478,-213.9478 1478,-234 1478,-234 1478,-234 1812.3245,-234 1812.3245,-234"/>
<polygon fill="#000000" stroke="#000000" points="1812.3245,-237.5001 1822.3245,-234 1812.3245,-230.5001 1812.3245,-237.5001"/>
</g>
<!-- RequestServiceComponent -->
<g id="node14" class="node">
<title>RequestServiceComponent</title>
<polygon fill="#ffffb3" stroke="#000000" points="1368.4115,-198 1199.5885,-198 1199.5885,-162 1368.4115,-162 1368.4115,-198"/>
<text text-anchor="middle" x="1284" y="-175.8" font-family="Times,serif" font-size="14.00" fill="#000000">RequestServiceComponent</text>
</g>
<!-- RequestServiceComponent&#45;&gt;AppModule -->
<g id="edge14" class="edge">
<title>RequestServiceComponent&#45;&gt;AppModule</title>
<path fill="none" stroke="#000000" d="M1284,-198.0352C1284,-214.7344 1284,-237 1284,-237 1284,-237 1812.2878,-237 1812.2878,-237"/>
<polygon fill="#000000" stroke="#000000" points="1812.2879,-240.5001 1822.2878,-237 1812.2878,-233.5001 1812.2879,-240.5001"/>
</g>
<!-- SignInComponent -->
<g id="node15" class="node">
<title>SignInComponent</title>
<polygon fill="#ffffb3" stroke="#000000" points="1181.1667,-198 1062.8333,-198 1062.8333,-162 1181.1667,-162 1181.1667,-198"/>
<text text-anchor="middle" x="1122" y="-175.8" font-family="Times,serif" font-size="14.00" fill="#000000">SignInComponent</text>
</g>
<!-- SignInComponent&#45;&gt;AppModule -->
<g id="edge15" class="edge">
<title>SignInComponent&#45;&gt;AppModule</title>
<path fill="none" stroke="#000000" d="M1122,-198.302C1122,-216.2699 1122,-241 1122,-241 1122,-241 1812.2493,-241 1812.2493,-241"/>
<polygon fill="#000000" stroke="#000000" points="1812.2493,-244.5001 1822.2493,-241 1812.2492,-237.5001 1812.2493,-244.5001"/>
</g>
<!-- UpcomingInterviewsComponent -->
<g id="node16" class="node">
<title>UpcomingInterviewsComponent</title>
<polygon fill="#ffffb3" stroke="#000000" points="1044.5182,-198 845.4818,-198 845.4818,-162 1044.5182,-162 1044.5182,-198"/>
<text text-anchor="middle" x="945" y="-175.8" font-family="Times,serif" font-size="14.00" fill="#000000">UpcomingInterviewsComponent</text>
</g>
<!-- UpcomingInterviewsComponent&#45;&gt;AppModule -->
<g id="edge16" class="edge">
<title>UpcomingInterviewsComponent&#45;&gt;AppModule</title>
<path fill="none" stroke="#000000" d="M945,-198.1686C945,-217.0898 945,-244 945,-244 945,-244 1812.1244,-244 1812.1244,-244"/>
<polygon fill="#000000" stroke="#000000" points="1812.1245,-247.5001 1822.1244,-244 1812.1244,-240.5001 1812.1245,-247.5001"/>
</g>
<!-- AppComponent  -->
<g id="node20" class="node">
<title>AppComponent </title>
<polygon fill="#80b1d3" stroke="#000000" points="1918.439,-328 1809.561,-328 1809.561,-292 1918.439,-292 1918.439,-328"/>
<text text-anchor="middle" x="1864" y="-305.8" font-family="Times,serif" font-size="14.00" fill="#000000">AppComponent </text>
</g>
<!-- AppModule&#45;&gt;AppComponent  -->
<g id="edge19" class="edge">
<title>AppModule&#45;&gt;AppComponent </title>
<path fill="none" stroke="#000000" stroke-dasharray="1,5" d="M1864,-263.1061C1864,-263.1061 1864,-281.991 1864,-281.991"/>
<polygon fill="#000000" stroke="#000000" points="1860.5001,-281.9909 1864,-291.991 1867.5001,-281.991 1860.5001,-281.9909"/>
</g>
<!-- AppRoutingModule -->
<g id="node18" class="node">
<title>AppRoutingModule</title>
<polygon fill="#8dd3c7" stroke="#000000" points="821.2744,-198 818.2744,-202 797.2744,-202 794.2744,-198 692.7256,-198 692.7256,-162 821.2744,-162 821.2744,-198"/>
<text text-anchor="middle" x="757" y="-175.8" font-family="Times,serif" font-size="14.00" fill="#000000">AppRoutingModule</text>
</g>
<!-- AppRoutingModule&#45;&gt;AppModule -->
<g id="edge17" class="edge">
<title>AppRoutingModule&#45;&gt;AppModule</title>
<path fill="none" stroke="#000000" d="M757,-198.308C757,-218.1455 757,-247 757,-247 757,-247 1812.291,-247 1812.291,-247"/>
<polygon fill="#000000" stroke="#000000" points="1812.291,-250.5001 1822.291,-247 1812.2909,-243.5001 1812.291,-250.5001"/>
</g>
<!-- SignInModuleModule -->
<g id="node19" class="node">
<title>SignInModuleModule</title>
<polygon fill="#8dd3c7" stroke="#000000" points="674.4341,-198 671.4341,-202 650.4341,-202 647.4341,-198 533.5659,-198 533.5659,-162 674.4341,-162 674.4341,-198"/>
<text text-anchor="middle" x="604" y="-175.8" font-family="Times,serif" font-size="14.00" fill="#000000">SignInModuleModule</text>
</g>
<!-- SignInModuleModule&#45;&gt;AppModule -->
<g id="edge18" class="edge">
<title>SignInModuleModule&#45;&gt;AppModule</title>
<path fill="none" stroke="#000000" d="M604,-198.0267C604,-218.7672 604,-250 604,-250 604,-250 1812.0775,-250 1812.0775,-250"/>
<polygon fill="#000000" stroke="#000000" points="1812.0776,-253.5001 1822.0775,-250 1812.0775,-246.5001 1812.0776,-253.5001"/>
</g>
<!-- AuthGuardService -->
<g id="node21" class="node">
<title>AuthGuardService</title>
<ellipse fill="#fdb462" stroke="#000000" cx="427" cy="-180" rx="83.3674" ry="18"/>
<text text-anchor="middle" x="427" y="-175.8" font-family="Times,serif" font-size="14.00" fill="#000000">AuthGuardService</text>
</g>
<!-- AuthGuardService&#45;&gt;AppModule -->
<g id="edge20" class="edge">
<title>AuthGuardService&#45;&gt;AppModule</title>
<path fill="none" stroke="#000000" d="M427,-198.2921C427,-220.2057 427,-254 427,-254 427,-254 1812.1582,-254 1812.1582,-254"/>
<polygon fill="#000000" stroke="#000000" points="1812.1582,-257.5001 1822.1582,-254 1812.1581,-250.5001 1812.1582,-257.5001"/>
</g>
<!-- GetInfoService -->
<g id="node22" class="node">
<title>GetInfoService</title>
<ellipse fill="#fdb462" stroke="#000000" cx="256" cy="-180" rx="70.0403" ry="18"/>
<text text-anchor="middle" x="256" y="-175.8" font-family="Times,serif" font-size="14.00" fill="#000000">GetInfoService</text>
</g>
<!-- GetInfoService&#45;&gt;AppModule -->
<g id="edge21" class="edge">
<title>GetInfoService&#45;&gt;AppModule</title>
<path fill="none" stroke="#000000" d="M256,-198.2479C256,-221.0179 256,-257 256,-257 256,-257 1812.2269,-257 1812.2269,-257"/>
<polygon fill="#000000" stroke="#000000" points="1812.227,-260.5001 1822.2269,-257 1812.2269,-253.5001 1812.227,-260.5001"/>
</g>
<!-- RegisterService -->
<g id="node23" class="node">
<title>RegisterService</title>
<ellipse fill="#fdb462" stroke="#000000" cx="96" cy="-180" rx="72.3439" ry="18"/>
<text text-anchor="middle" x="96" y="-175.8" font-family="Times,serif" font-size="14.00" fill="#000000">RegisterService</text>
</g>
<!-- RegisterService&#45;&gt;AppModule -->
<g id="edge22" class="edge">
<title>RegisterService&#45;&gt;AppModule</title>
<path fill="none" stroke="#000000" d="M96,-198.1532C96,-221.7566 96,-260 96,-260 96,-260 1812.0402,-260 1812.0402,-260"/>
<polygon fill="#000000" stroke="#000000" points="1812.0402,-263.5001 1822.0402,-260 1812.0402,-256.5001 1812.0402,-263.5001"/>
</g>
<!-- SignInServiceService -->
<g id="node24" class="node">
<title>SignInServiceService</title>
<ellipse fill="#fdb462" stroke="#000000" cx="604" cy="-104" rx="94.8993" ry="18"/>
<text text-anchor="middle" x="604" y="-99.8" font-family="Times,serif" font-size="14.00" fill="#000000">SignInServiceService</text>
</g>
<!-- SignInServiceService&#45;&gt;SignInModuleModule -->
<g id="edge23" class="edge">
<title>SignInServiceService&#45;&gt;SignInModuleModule</title>
<path fill="none" stroke="#000000" d="M604,-122.0109C604,-122.0109 604,-151.855 604,-151.855"/>
<polygon fill="#000000" stroke="#000000" points="600.5001,-151.8549 604,-161.855 607.5001,-151.855 600.5001,-151.8549"/>
</g>
</g>
</svg>
